<svg width="32" height="32" viewBox="0 0 32 32" fill="none" xmlns="http://www.w3.org/2000/svg">
<rect width="32" height="32" rx="4" fill="#0074C7"/>
<path fill-rule="evenodd" clip-rule="evenodd" d="M10.0012 12.0735C9.92472 12.1127 9.74849 12.3051 9.60962 12.5012C9.31218 12.9209 7.19139 15.8128 6.22097 17.1219C5.83323 17.6449 4.86341 18.9683 4.34404 19.6831C3.9703 20.1974 3.92344 20.3536 4.09615 20.51C4.18705 20.5923 4.2925 20.5991 5.66053 20.6102C6.76982 20.6192 7.15505 20.6078 7.24094 20.5636C7.30343 20.5314 7.49115 20.3028 7.65811 20.0555L7.96172 19.6057L9.50292 19.6037L11.0441 19.6017V19.9906C11.0441 20.3042 11.0612 20.4006 11.1326 20.4888C11.2211 20.5982 11.2222 20.5983 12.4544 20.6127L13.6877 20.6271L13.8267 20.488L13.9658 20.349L13.9534 16.2863L13.9411 12.2237L13.811 12.1118L13.681 12L11.9106 12.0011C10.4096 12.0019 10.1191 12.013 10.0012 12.0735ZM14.984 12.0342C14.9458 12.0475 14.878 12.0902 14.8334 12.1291C14.7573 12.1954 14.7523 12.4534 14.7523 16.3107V20.4217L14.8497 20.51C14.9404 20.592 15.0476 20.5993 16.3678 20.6129C17.9634 20.6294 18.768 20.5771 19.4059 20.4152C20.7033 20.0861 21.7785 19.2171 22.2341 18.1294C22.7467 16.9056 22.6732 15.2155 22.0597 14.1185C21.854 13.7507 21.3259 13.1773 20.9374 12.9001C20.2805 12.4314 19.427 12.1404 18.4393 12.0485C17.9021 11.9985 15.1191 11.9869 14.984 12.0342ZM22.4415 12.4288C22.5619 12.6391 22.7575 13.0302 22.8761 13.2979C23.584 14.8953 23.7487 16.2225 23.4271 17.7386C23.1957 18.8292 22.9124 19.5473 22.4288 20.2685C22.3112 20.4439 22.2149 20.595 22.2149 20.6044C22.2149 20.6138 22.3175 20.6215 22.4428 20.6215C22.656 20.6215 22.6828 20.6076 22.8615 20.4045C23.6079 19.5567 24.1252 18.0656 24.1935 16.5657C24.2152 16.0889 24.2015 15.92 24.0983 15.3837C23.8875 14.2896 23.6765 13.6859 23.2225 12.8791C23.101 12.6632 22.9169 12.3876 22.8133 12.2665C22.6423 12.0666 22.6064 12.0464 22.4237 12.0464H22.2226L22.4415 12.4288ZM24.5264 12.7532C24.959 13.6125 25.1785 14.2033 25.3487 14.9669C25.4613 15.4721 25.4778 15.6434 25.4777 16.3107C25.4777 16.9644 25.4591 17.1656 25.35 17.6953C25.2797 18.0362 25.1589 18.5055 25.0814 18.7382C24.9094 19.2551 24.5397 20.0043 24.296 20.3298C24.1967 20.4625 24.1154 20.5824 24.1154 20.5963C24.1154 20.6101 24.2179 20.6215 24.3432 20.6215C24.556 20.6215 24.5834 20.6073 24.7597 20.4072C25.3326 19.7563 25.8043 18.7087 25.999 17.6549C26.1267 16.9636 26.1161 15.7827 25.9763 15.1288C25.7463 14.0531 25.3212 13.0472 24.8059 12.3592C24.5797 12.0573 24.5645 12.0464 24.371 12.0464H24.1705L24.5264 12.7532ZM26.0621 12.06C26.0621 12.0676 26.1771 12.2814 26.3175 12.5351C27.0325 13.8267 27.461 15.4521 27.3912 16.6073C27.3573 17.1687 27.1462 18.2142 26.9462 18.811C26.7793 19.3093 26.4076 20.0564 26.1753 20.3606C26.0876 20.4755 26.0158 20.5812 26.0158 20.5955C26.0158 20.6098 26.1159 20.6215 26.2381 20.6215C26.4348 20.6215 26.4796 20.6013 26.6258 20.4476C27.3735 19.6616 27.9223 18.1494 27.9939 16.6787C28.0645 15.2255 27.5203 13.4469 26.651 12.2897C26.4792 12.061 26.4559 12.0464 26.2652 12.0464C26.1535 12.0464 26.0621 12.0525 26.0621 12.06ZM17.3016 16.3046V18.3502H17.7213C18.5532 18.3502 19.15 18.0989 19.5376 17.5854C19.8469 17.1757 19.9187 16.9269 19.9187 16.2644C19.9187 15.5701 19.8316 15.295 19.4921 14.9175C19.0745 14.453 18.7353 14.3186 17.8926 14.2835L17.3016 14.259V16.3046ZM10.5828 15.2104C10.3673 15.5479 9.99049 16.1369 9.74543 16.5193C9.50037 16.9017 9.28432 17.2407 9.26536 17.2725C9.23829 17.3181 9.42477 17.3305 10.1375 17.3305H11.0441V15.9631C11.0441 15.211 11.0285 14.5959 11.0094 14.5962C10.9903 14.5965 10.7983 14.8728 10.5828 15.2104Z" fill="white"/>
</svg>
